# xmcd CD database file
#
# Track frame offsets:
#	150
#	19302
#	49578
#	105040
#	136041
#	159242
#	181310
#	210458
#	230019
#
# Disc length: 3600 seconds
#
# Revision: 0
# Processed by: cddbd v1.5.2PL0 Copyright (c) Steve Scherf et al.
# Submitted via: CDex 1.70beta1
#
DISCID=640e0e09
DTITLE=New jazz players - The Future of Jazz
DYEAR=2006
DGENRE=Jazz
TTITLE0=Squat - Rickshaw
TTITLE1=Jaspects - West End Station
TTITLE2=The Christian Taburr Quartet - Pagent (so spelt)
TTITLE3=Will Scruggs Jazz Fellowship - O Lamb
TTITLE4=Internatioanl Groove Conspiracy - Timbeao
TTITLE5=Tammy Allen - I Am Free
TTITLE6=William Green - Dirty South
TTITLE7=The William Herriott Jazz Ensemble - Mangy Joe
TTITLE8=Adams Township -Number 5
EXTD=YEAR: 2006
EXTT0=
EXTT1=
EXTT2=
EXTT3=
EXTT4=
EXTT5=
EXTT6=
EXTT7=
EXTT8=
PLAYORDER=
